<?xml version="1.0" encoding="UTF-8" standalone="no"?>
<svg width="207px" height="47px" viewBox="0 0 207 47" version="1.1" xmlns="http://www.w3.org/2000/svg" xmlns:xlink="http://www.w3.org/1999/xlink">
    <!-- Generator: Sketch 41.2 (35397) - http://www.bohemiancoding.com/sketch -->
    <title>WebySafeLogo</title>
    <desc>Created with Sketch.</desc>
    <defs></defs>
    <g id="OTG" stroke="none" stroke-width="1" fill="none" fill-rule="evenodd">
        <g id="Profile" transform="translate(-39.000000, -40.000000)" fill="#FFFFFF">
            <g id="WebySafeLogo" transform="translate(39.000000, 40.000000)">
                <g id="Group_11" transform="translate(0.762943, 0.751145)">
                    <path d="M148.835535,11.8149455 L148.937767,10.9381818 C149.346606,7.58256127 152.125256,5.03692942 155.467139,4.95636364 C156.981588,4.93588047 158.429183,5.58614855 159.429576,6.73631342 C160.429969,7.88647829 160.88314,9.42154458 160.67002,10.9381818 L160.567788,11.8149455 C162.324833,12.6681847 163.84861,13.9435505 165.006037,15.5296545 L165.512976,10.9894545 C166.1796,4.95636364 161.945816,0 156.028151,0 C149.91857,0.172931321 144.858228,4.85057048 144.139592,10.9894545 L143.632653,15.5296545 C145.085616,13.9308119 146.859486,12.6643194 148.835535,11.8149455 L148.835535,11.8149455 Z" id="Path_30"></path>
                    <path d="M45.6549061,1.71251689 L31.2696735,37.1573533 L26.7300367,37.1573533 L22.1895551,10.5869714 C22.1388612,10.3306078 22.0873224,10.0195533 22.0366286,9.7102078 C21.9747741,9.36950647 21.9405825,9.0242579 21.9343959,8.67791689 C21.6809265,9.4000078 21.4756163,10.070826 21.2204571,10.6382442 L10.2536816,37.1573533 L5.76389388,37.1573533 L0,1.71251689 L3.92793061,1.71251689 C4.30949003,1.68886587 4.68755726,1.79803234 4.99926122,2.02186235 C5.25805814,2.24386518 5.42235953,2.558164 5.45804082,2.89948053 L9.08011837,27.0925169 C9.13081224,27.5565351 9.13081224,28.0214078 9.18235102,28.5375533 C9.2338898,29.0536987 9.28458367,29.6211169 9.28458367,30.1885351 C9.48904898,29.6211169 9.64197551,29.0536987 9.84559592,28.5375533 C10.0492163,28.0214078 10.2029878,27.5052623 10.4066082,27.0925169 L20.4042857,2.89948053 C20.5641374,2.57930158 20.7903582,2.29774162 21.0675306,2.07398962 C21.388588,1.8251764 21.7853632,1.69735083 22.1895551,1.71251689 L23.3115796,1.71251689 C23.6775427,1.68777812 24.0400167,1.7976406 24.3322163,2.02186235 C24.5755384,2.24252801 24.7514269,2.52894197 24.8391551,2.84735326 L29.0763184,27.0925169 C29.1733105,27.5721574 29.2415897,28.057282 29.2807837,28.5452442 C29.3314776,29.0579714 29.3830163,29.5775351 29.4337102,30.1449533 C29.7395633,29.0613896 30.0462612,28.0299533 30.3521143,27.1010623 L39.8394735,2.89948053 C39.9645728,2.55791172 40.197736,2.26771109 40.5027184,2.07398962 C40.8463469,1.83117128 41.2571673,1.70463327 41.6762816,1.71251689 L45.6549061,1.71251689 Z" id="Path_31"></path>
                    <path d="M62.781872,32.809272 C61.9150067,33.6860356 61.0988352,34.4089811 60.3316679,35.0797993 C59.5624905,35.6689609 58.742448,36.1869107 57.8814638,36.6273811 C57.0594337,37.0420039 56.1836444,37.3371712 55.280023,37.5041447 C54.3065041,37.6984327 53.3148889,37.7843988 52.3228801,37.7605084 C51.0132598,37.7748184 49.7135523,37.5295019 48.4971822,37.0384175 C47.3857789,36.5826045 46.3915592,35.8768628 45.5898883,34.9746902 C44.7547188,34.0564438 44.1278506,32.9648341 43.7530801,31.7761265 C43.3102955,30.4106493 43.0863835,28.9823096 43.0898352,27.545272 C43.0994384,26.2450268 43.2361319,24.9489277 43.4979209,23.6758902 C43.7499913,22.4303437 44.1438012,21.2185049 44.6714842,20.0645811 C45.1900794,18.9355024 45.8226036,17.863626 46.5589862,16.8660175 C47.2905539,15.8938628 48.1485538,15.0260658 49.1097332,14.2861447 C50.0781395,13.5689516 51.1430997,12.9957151 52.2721862,12.5838902 C53.4696753,12.1655115 54.7287566,11.9560136 55.9956516,11.9643447 C57.1255153,11.9503941 58.2486088,12.1426084 59.3110311,12.5317629 C60.1552426,12.8475753 60.9337661,13.3199652 61.6066189,13.924672 C62.1966456,14.4529254 62.6664877,15.1042215 62.9838026,15.8337265 C63.2803007,16.4625736 63.4369025,17.1495134 63.4425822,17.8461811 C63.4593391,18.8822621 63.2319904,19.9074933 62.7793373,20.8370902 C62.2314899,21.878569 61.3991596,22.7387943 60.3815169,23.315272 C58.8861685,24.1895818 57.270066,24.8330352 55.5867209,25.2243265 C53.0077665,25.8754872 50.3793792,26.306834 47.7291699,26.5138356 L47.7291699,27.4427265 C47.6087233,29.1890902 48.0959061,30.9230715 49.1063536,32.3443993 C50.1815787,33.5070265 51.7198336,34.1141449 53.2894434,33.9953811 C53.9774865,33.99618 54.6629345,33.9100589 55.329872,33.7390175 C55.8726915,33.5977233 56.4019969,33.4078345 56.9115209,33.1715993 C57.3547174,32.9752242 57.767161,32.7143956 58.1357781,32.3973811 C58.4931699,32.1410175 58.799023,31.8846538 59.104876,31.6231629 C59.4107291,31.4163629 59.6658883,31.2104175 59.9210475,31.0557447 C60.1637685,30.8941764 60.4467065,30.8053041 60.7372189,30.7993811 C60.904491,30.7864171 61.0698714,30.8421734 61.1959985,30.9540538 C61.348925,31.0574538 61.4494679,31.1608538 61.6040842,31.2633993 L62.781872,32.809272 Z M55.7421822,15.4218356 C54.8055427,15.4124863 53.8797024,15.6246422 53.0385087,16.0413811 C52.2099828,16.4689247 51.4655455,17.0457908 50.841774,17.7436356 C50.1548235,18.493061 49.587052,19.3457944 49.1587373,20.2713811 C48.6892518,21.2766115 48.3310923,22.331261 48.0907862,23.4161084 C50.0290997,23.1806102 51.9532596,22.8382829 53.8546801,22.3906538 C55.0116029,22.1366904 56.1275968,21.7198861 57.1700597,21.1524175 C57.8035324,20.8247433 58.3335926,20.3241543 58.7001699,19.7073811 C58.94994,19.1945203 59.0725977,18.6278998 59.0575618,18.0563993 C59.0579611,17.7515665 58.9882509,17.4508181 58.8539413,17.1779265 C58.7334378,16.862122 58.5412722,16.5793636 58.2929291,16.3524356 C57.9880366,16.0648464 57.6213017,15.8527654 57.2215985,15.7328902 C56.7621797,15.5049924 56.2533395,15.3980063 55.7421822,15.4218356 Z" id="Path_32"></path>
                    <path d="M72.839498,17.4899818 C73.4193048,16.56494 74.0672043,15.6854016 74.7776939,14.8588364 C75.4459348,14.1198409 76.1814188,13.4460553 76.9744286,12.8463818 C77.7114016,12.3072803 78.5182507,11.8733699 79.372249,11.5568727 C80.1881783,11.2490076 81.0521386,11.0918405 81.9229959,11.0928545 C83.8444983,11.01883 85.6840959,11.8833173 86.8673388,13.4163636 C88.040902,14.9639455 88.6526082,17.2344727 88.6526082,20.2783636 C88.6431257,21.6470204 88.5064965,23.0117474 88.2445224,24.3545455 C87.9615845,25.6754155 87.5690054,26.9697969 87.0709592,28.2239273 C86.5848519,29.4343112 85.9507479,30.578339 85.1834571,31.6292909 C84.4898756,32.6463836 83.6659538,33.5659199 82.7332531,34.3638364 C81.8716254,35.1270445 80.8886929,35.7375216 79.8259592,36.1694909 C78.7878281,36.5944227 77.6810483,36.8218406 76.5612735,36.8403091 C75.3375742,36.8733844 74.125861,36.5892076 73.0414286,36.0148182 C71.9971576,35.4713123 71.1031185,34.6733775 70.4399878,33.6930182 L70.1341347,35.0859273 C70.0449536,35.4758142 69.8507756,35.8331115 69.5731224,36.1182182 C69.2490008,36.3564298 68.8499043,36.4664619 68.451098,36.4275636 L65.9020408,36.4275636 L70.288751,9.9475983e-14 L74.9306204,9.9475983e-14 L72.839498,17.4899818 Z M71.2071551,31.0593091 C71.7431717,31.8247617 72.4875791,32.4161622 73.3498163,32.7615636 C74.1451702,33.0846186 74.9920757,33.2583663 75.8490245,33.2742909 C76.6434774,33.2887369 77.4300569,33.1130517 78.1446122,32.7615636 C78.8812617,32.3927351 79.5533643,31.9046234 80.1343469,31.3165273 C80.7567441,30.6897924 81.2891471,29.9778567 81.7159959,29.2015273 C82.1888048,28.3820063 82.5818359,27.5179963 82.8895592,26.6216545 C83.1984831,25.691354 83.4540672,24.7437969 83.6550367,23.7837091 C83.8153232,22.8117447 83.9000723,21.8285728 83.9085061,20.8432182 C84.0135101,19.3335457 83.6764461,17.8260395 82.9394082,16.5089636 C82.3244041,15.5572477 81.2562239,15.007137 80.133502,15.0639273 C79.3174636,15.0880606 78.5235468,15.3377919 77.8379143,15.7860182 C76.9820945,16.3230867 76.2229461,17.0036318 75.5930204,17.7984727 C74.8369762,18.74783 74.1708033,19.7669396 73.6032857,20.8423636 C72.9630643,22.0641046 72.4336811,23.3420387 72.0216367,24.6604727 L71.2071551,31.0593091 Z" id="Path_33"></path>
                    <path d="M114.84529,12.0149091 L98.2151633,44.4158545 C97.9393953,45.0790524 97.2941165,45.5073942 96.5828204,45.4994182 L93.0629755,45.4994182 L98.4703224,35.4901273 L92.0938776,12.0149091 L96.072502,12.0149091 C96.3664776,11.9958976 96.657064,12.0871723 96.8886735,12.2712727 C97.0714781,12.462075 97.2107673,12.6910409 97.2967592,12.9420909 L101.071763,28.0077273 C101.16445,28.3637352 101.232767,28.725781 101.276229,29.0912909 L101.429155,30.1748545 C101.582082,29.8133818 101.735008,29.4006364 101.887935,29.0400182 C102.036012,28.6692003 102.205278,28.3074022 102.394873,27.9564545 L109.791955,12.8908182 C109.921113,12.6236497 110.113895,12.3931349 110.352967,12.22 C110.580672,12.0664395 110.845127,11.9778717 111.118445,11.9636364 L114.84191,11.9636364 L114.84529,12.0149091 Z" id="Path_34"></path>
                    <path d="M137.088073,8.33572801 C136.838782,8.66551958 136.547277,8.96035322 136.221208,9.21249164 C135.925485,9.42895053 135.566109,9.5379644 135.201416,9.5218371 C134.799446,9.52161836 134.407434,9.39532741 134.079392,9.16036437 C133.722,8.90400073 133.26322,8.6476371 132.804441,8.33487346 C132.299161,8.01868936 131.770353,7.74269497 131.222792,7.50938255 C130.539067,7.24738818 129.810915,7.12454701 129.080131,7.14790982 C128.404161,7.13344292 127.730863,7.23812112 127.090396,7.45725528 C126.563846,7.65596805 126.079118,7.95343098 125.661673,8.33401892 C125.286931,8.71810863 124.992162,9.17431798 124.794808,9.67565528 C124.58602,10.2180283 124.482188,10.7959174 124.488955,11.3779098 C124.479231,11.9776722 124.677753,12.5618945 125.049967,13.0288916 C125.464334,13.5157374 125.966373,13.9185328 126.529384,14.2158553 C127.175661,14.596561 127.859521,14.9078836 128.569812,15.1447462 C129.33529,15.4011098 130.099922,15.7121644 130.916094,16.0736371 C131.721936,16.3994912 132.505721,16.7785878 133.262376,17.2084735 C134.032624,17.6360191 134.737082,18.1749303 135.353498,18.8081826 C136.001223,19.4693844 136.505139,20.2602312 136.832914,21.1299826 C137.217712,22.1677677 137.407963,23.2689833 137.393927,24.3772553 C137.404721,26.1227651 137.093251,27.8549745 136.475522,29.4848735 C135.873285,31.0416083 134.971535,32.4619605 133.822543,33.6636007 C132.608543,34.8807454 131.170074,35.8449648 129.588759,36.5015462 C127.825166,37.2284519 125.932355,37.5798612 124.028486,37.5338371 C122.98075,37.538209 121.9362,37.4168705 120.916727,37.1723644 C119.898824,36.9549258 118.907292,36.6262762 117.959584,36.1922007 C117.032699,35.7754135 116.145031,35.2745992 115.307449,34.6958916 C114.530722,34.1549526 113.82766,33.5131043 113.216327,32.7868371 L116.022233,29.0208553 C116.254103,28.7304687 116.551343,28.5004512 116.889098,28.3500371 C117.19862,28.1689952 117.552433,28.0801246 117.909735,28.0936735 C118.390096,28.097908 118.855919,28.2608572 119.236224,28.5576916 C119.64431,28.8670371 120.154629,29.2285098 120.664102,29.6412553 C121.249549,30.0470682 121.863443,30.4092141 122.50091,30.7248189 C123.310472,31.055576 124.178881,31.2135523 125.051657,31.1888371 C126.310631,31.2681878 127.546472,30.8204297 128.469269,29.9506007 C129.346201,28.9654675 129.788288,27.661401 129.693527,26.3392916 C129.711028,25.6909453 129.51354,25.0553181 129.132514,24.5336371 C128.739821,24.0450525 128.253936,23.6413859 127.703792,23.3466735 C127.04545,23.0050198 126.363526,22.712 125.663363,22.4699098 C124.897886,22.2135462 124.133253,21.9571826 123.317082,21.6444189 C122.50091,21.3316553 121.735433,20.9736007 120.9708,20.612128 C120.205178,20.2008875 119.515017,19.659797 118.930371,19.0124189 C118.309028,18.320816 117.824345,17.5152922 117.502494,16.6393462 C117.105317,15.514194 116.915179,14.3249995 116.941482,13.1305826 C116.943165,11.5611078 117.236361,10.0059227 117.805812,8.54594619 C118.387427,7.07898424 119.254885,5.74535728 120.356559,4.6244371 C121.509386,3.45411401 122.878838,2.52491385 124.386722,1.88989164 C126.068806,1.19135089 127.871858,0.83952236 129.690147,0.855037098 C130.683847,0.853238111 131.674989,0.956921125 132.64729,1.16438255 C133.559233,1.3629904 134.448325,1.65682 135.300269,2.04114619 C136.099185,2.39542986 136.852928,2.84589606 137.545163,3.38278255 C138.195782,3.86947386 138.779142,4.44196405 139.279739,5.0850371 L137.088073,8.33572801 Z" id="Path_35"></path>
                    <path d="M178.744922,16.3009088 L176.449335,35.3905997 L175.122845,39.672727 C174.862569,40.5218345 174.387894,41.2876298 173.745661,41.8945452 C173.026027,42.4800828 172.116952,42.7742842 171.194914,42.7200361 L168.134694,42.7200361 L171.297147,16.304327 L169.817731,15.9428543 C169.403155,15.822484 169.020008,15.610923 168.695706,15.3233088 C168.370936,15.0019875 168.252653,14.5231244 168.389853,14.0850725 L168.797939,11.0941634 L172.008551,11.0941634 L172.161478,9.64912701 C172.327403,8.26720387 172.724236,6.92383231 173.335041,5.67634519 C173.928888,4.52667598 174.723828,3.4953799 175.681322,2.63245428 C176.668136,1.79300237 177.789358,1.13004289 178.996702,0.672127009 C180.307416,0.20760067 181.688859,-0.0194833555 183.077559,0.00130882756 C183.606177,0.00838321165 184.134088,0.0428952794 184.659208,0.104708828 C185.145969,0.176354986 185.624348,0.297458381 186.087086,0.466181555 L185.423841,4.33556337 C185.372172,4.71425417 185.116526,5.03243806 184.760596,5.16105428 C184.403755,5.30423672 184.022411,5.37452223 183.638571,5.36785428 C182.543045,5.31908918 181.469237,5.68741379 180.629045,6.40014519 C179.752403,7.35612642 179.246031,8.59979811 179.202857,9.90292701 L179.049931,11.0898906 L184.151424,11.0898906 L183.48818,16.3026179 L178.744922,16.3009088 Z" id="Path_36"></path>
                    <path d="M204.96959,32.2114941 C204.051468,33.0888274 203.184321,33.8627607 202.368149,34.5332941 C201.549798,35.1712361 200.659191,35.7082596 199.71517,36.1330031 C198.79771,36.5428275 197.840269,36.854162 196.85857,37.0618941 C195.766079,37.2742392 194.655652,37.377849 193.54319,37.3712395 C192.129379,37.3836132 190.726417,37.1207636 189.410794,36.5970213 C188.183366,36.1208602 187.083643,35.3598265 186.200182,34.3752031 C185.272166,33.4029882 184.559337,32.2421564 184.10906,30.9698395 C183.586745,29.5509814 183.327258,28.0469629 183.343582,26.5330395 C183.352987,23.8888251 183.945575,21.280045 185.078158,18.8968213 C185.619384,17.7620416 186.305373,16.7039279 187.118586,15.7495304 C187.910497,14.7902586 188.838722,13.9551085 189.872954,13.2713486 C190.911856,12.5744173 192.046245,12.0354401 193.239872,11.6716395 C194.497336,11.297743 195.801362,11.1083809 197.112039,11.1093486 C198.341653,11.1010628 199.564596,11.2926435 200.734117,11.6767668 C201.700396,12.0327546 202.597887,12.5564614 203.386251,13.2243486 C204.072365,13.8044247 204.628769,14.5253472 205.018594,15.3393486 C205.372363,16.0802873 205.56373,16.8897676 205.579607,17.7124213 C205.601861,18.8157462 205.375027,19.9096726 204.916362,20.910985 C204.375379,21.9836337 203.544084,22.8786562 202.519386,23.4917122 C201.118655,24.3730628 199.585381,25.0178509 197.979749,25.4007668 C195.616418,25.9959091 193.212053,26.4098297 190.787133,26.6390031 C190.837827,28.393385 191.195219,29.6828941 191.909158,30.4571122 C192.75152,31.3160916 193.92828,31.7511396 195.11977,31.6440759 C195.701604,31.6508569 196.28266,31.5990439 196.854345,31.4894031 C197.301568,31.4063276 197.732277,31.2495712 198.129296,31.025385 C198.464785,30.8588959 198.788579,30.6693109 199.098394,30.4579668 C199.404247,30.2511668 199.659407,30.0964941 199.914566,29.8905486 C200.186606,29.7055123 200.477165,29.549981 200.781431,29.4265304 C201.110567,29.3170496 201.455661,29.2647522 201.802068,29.2718577 C202.055064,29.2676094 202.303589,29.3395973 202.516007,29.4786577 C202.743144,29.5992285 202.949673,29.7558941 203.127713,29.9426759 L204.96959,32.2114941 Z M196.6051,16.1656941 C195.342284,16.176247 194.140909,16.718456 193.289721,17.6620031 C192.245523,18.8474729 191.524799,20.2877075 191.198598,21.8407304 C192.780247,21.5843668 194.004505,21.3280031 195.024296,21.0665122 C195.807894,20.87766 196.562718,20.5827456 197.268345,20.1897486 C198.11949,19.7947275 198.645481,18.9137121 198.594835,17.9679304 C198.592825,17.5189402 198.409727,17.0902283 198.087896,16.7809668 C197.741829,16.3173631 197.173373,16.0814876 196.6051,16.1656941 L196.6051,16.1656941 Z" id="Path_37"></path>
                    <path d="M155.027713,11.1090909 C147.732864,11.1090909 141.152799,17.1456 140.336627,24.6784182 C139.520456,32.1591091 144.774876,38.2477455 152.06888,38.2477455 C159.362885,38.2477455 165.943795,32.2112364 166.759966,24.6784182 C167.576138,17.1456 162.322562,11.1090909 155.027713,11.1090909 Z M156.354203,29.8373091 C155.302277,30.5201253 154.084027,30.8951565 152.834358,30.9208727 C151.642535,30.9261621 150.480154,30.5465522 149.516444,29.8373091 L150.023383,25.0903091 C150.188274,23.784519 151.272904,22.7972417 152.574129,22.7685091 L152.727056,22.7685091 C152.024496,22.3641152 151.639604,21.5648388 151.757958,20.7560545 C151.914399,19.4942794 152.951738,18.5330099 154.208162,18.4855273 C154.780236,18.477629 155.326483,18.7259906 155.700372,19.1639892 C156.074262,19.6019877 156.237522,20.1847883 156.146358,20.7560545 C156.027057,21.6237463 155.493029,22.3764068 154.71848,22.7685091 L154.871407,22.7685091 C155.472404,22.7540968 156.048499,23.0112696 156.442992,23.4700747 C156.837484,23.9288798 157.009348,24.5416039 156.911836,25.1415818 L156.354203,29.8373091 Z" id="Path_38"></path>
                </g>
            </g>
        </g>
    </g>
</svg>